<?xml version="1.0" encoding="utf-8"?>
<!-- Generator: Adobe Illustrator 28.0.0, SVG Export Plug-In . SVG Version: 6.00 Build 0)  -->
<svg version="1.1" id="Layer_1" xmlns="http://www.w3.org/2000/svg" xmlns:xlink="http://www.w3.org/1999/xlink" x="0px" y="0px"
	 viewBox="0 0 1920 944.67" style="enable-background:new 0 0 1920 944.67;" xml:space="preserve">
<style type="text/css">
	.st0{fill:#F48120;}
	.st1{fill:#FFFFFF;}
	.st2{fill:#58595B;}
</style>
<g>
	<path class="st0" d="M1847.24,750.06H66.67c-16.53,0-29.93-13.4-29.93-29.93V62.73c0-16.53,13.4-29.93,29.93-29.93h1780.58
		c16.53,0,29.93,13.4,29.93,29.93v657.4C1877.18,736.66,1863.77,750.06,1847.24,750.06z"/>
	<g>
		<g>
			<g>
				<path class="st1" d="M669.44,127.72l-88.62,194.73c-4.07,8.92-11.98,22.33-16.81,30.31l2.23-0.01c18.04,0,26.38-8.48,32-18.27
					c1.81-3.15,3.33-6.43,4.81-9.6l0.46-0.99l21.94-48.2h68.88l22.07,48.24c6.3,13.51,13.45,28.83,56.21,28.83l2.26,0.04
					c0,0-10.72-16.93-16.84-30.34L669.44,127.72z M633.1,258.92l26.72-58.69l26.86,58.69H633.1z"/>
				<path class="st1" d="M1030.06,127.72l-77.25,171.7l-81.33-171.7l-67.63,193.57c-4.96,13.99-13.66,31.47-13.66,31.47h1.71
					c23.87,0,30.09-18.26,34.19-30.31l40.64-115.65l77.73,162.43l72.96-162.43l40.75,116.2c5.04,13.95,10.75,29.77,51.48,29.77h1.64
					c0,0-8.63-17.48-13.59-31.47L1030.06,127.72z"/>
				<path class="st1" d="M1333.48,168.97v183.17h41.95V168.97c0-14.11,2.84-31.32,2.87-31.5l0.67-4.06h-4.11
					C1333.48,133.42,1333.48,153.96,1333.48,168.97z"/>
				<path class="st1" d="M1590.05,155c14.25,0,18.06-13.55,18.06-21.56h-202.16h-0.12c0,8.01,3.8,21.56,18.11,21.55
					c7.55-0.12,13.69-0.34,19.63-0.55c8.78-0.32,17.08-0.61,29.58-0.61h11.38v198.12h44.86V153.84h11.38
					c12.51,0,20.8,0.3,29.58,0.61C1576.3,154.66,1582.44,154.88,1590.05,155z"/>
				<path class="st1" d="M1282.46,329.2l-55.7-74.54c33.82-5.83,60.82-30.43,58.85-66.45c-1.87-34.05-32.61-54.75-69.92-54.75
					c-27.69,0-53.34,1.17-78.71,1.17c0,0,2.91,14.58,2.91,29.15l-1.15,156.98c0,14.58-2.91,32.07-2.91,32.07
					c37.9,0,37.9-17.49,37.9-32.07l1.15-170.68c15.45,0,25.07-0.62,34.98-0.58c22.1,0.1,39.46,15.82,41.95,39.3
					c2.76,25.93-6.26,45.22-25.1,53.74c-13.83,5.63-43.9,4.81-43.9,4.81l61.53,82.68c8.75,11.66,20.63,22.79,58.82,22.79
					C1303.15,352.81,1292.66,342.9,1282.46,329.2z"/>
				<path class="st1" d="M1770.39,322.45l-88.62-194.73l-88.62,194.73c-4.07,8.92-11.98,22.33-16.81,30.31l2.23-0.01
					c18.04,0,26.38-8.48,32-18.27c1.81-3.15,3.33-6.43,4.81-9.6l0.46-0.99l21.94-48.2h68.88l22.07,48.24
					c6.3,13.51,13.45,28.83,56.21,28.83l2.26,0.04C1787.23,352.79,1776.52,335.86,1770.39,322.45z M1645.44,258.92l26.72-58.69
					l26.86,58.69H1645.44z"/>
			</g>
		</g>
		<g>
			<g>
				<polygon class="st1" points="369.08,513.24 367.37,520.5 373.35,519.35 				"/>
				<path class="st1" d="M253.74,511.86c0.83-0.28,1.39-0.93,1.68-1.96c0.28-1.01,0.12-1.87-0.47-2.52
					c-0.62-0.66-1.62-1.2-3.02-1.59l-0.72-0.2l-1.64,5.87l0.9,0.25C251.79,512.08,252.88,512.14,253.74,511.86z"/>
				<polygon class="st1" points="318.73,517.71 315.61,524.48 321.69,524.56 				"/>
				<polygon class="st1" points="404.18,503.8 403.57,511.23 409.31,509.21 				"/>
				<path class="st1" d="M351.47,527.09c2.55-0.32,4.44-1.12,5.68-2.38c1.24-1.26,1.73-2.96,1.47-5.09
					c-0.26-2.06-1.16-3.56-2.68-4.5c-1.51-0.93-3.52-1.25-6-0.93l-0.95,0.12l1.62,12.89L351.47,527.09z"/>
				<polygon class="st1" points="471.3,462.46 471.01,469.89 476.58,467.7 				"/>
				<polygon class="st1" points="283.96,514.86 279.93,521.13 285.95,522.04 				"/>
				<polygon class="st1" points="192.51,470.2 187.46,475.65 193.11,477.61 				"/>
				<path class="st1" d="M137.71,470.67c-1.03,2.53-2.31,5.02-3.56,7.43c-2.15,4.17-4.37,8.48-5.5,13.3
					c-0.43,1.84-1.41,16.66,1.62,17.75c0.54,0.19,1.58,0.26,2.45-1.48c3.13-6.28,8.35-12.89,11.68-13.08
					c0.59-0.03,1.48,0.09,2.41,1.52c0.8,1.23,1.54,3.1,2.14,4.59c0.95,2.37,1.37,3.45,2.63,3.22c1.24-0.23,1.24-1.63,1.24-2.75
					c0-7.17,2.05-13.96,4.23-20.32c6,2.26,12.02,3.91,17.86,5.52c8.08,2.22,15.75,4.33,23.29,7.87l-1.79,1.82
					c-1.54,1.66-2.27,3.66-2.07,5.63c0.19,1.9,1.25,3.62,2.97,4.85c28.27,20.12,74.67,32.14,124.12,32.14
					c31.2,0,89.4-4.62,128.75-35.54c0.87-0.69,1.38-1.67,1.48-2.84c0.17-2.2-1.19-4.55-2.04-5.47l-1.49-1.76
					c7.88-3.86,15.9-6.06,24.37-8.39c5.89-1.62,11.87-3.26,17.87-5.52c2.19,6.38,4.23,13.19,4.23,20.32c0,1.12,0,2.51,1.24,2.75
					c1.23,0.24,1.68-0.84,2.64-3.22c0.6-1.5,1.34-3.36,2.14-4.59c0.93-1.43,1.82-1.55,2.41-1.52c3.33,0.19,8.55,6.8,11.68,13.08
					c0.87,1.74,1.91,1.67,2.45,1.47c3.03-1.09,2.06-15.91,1.62-17.75c-1.13-4.83-3.35-9.14-5.5-13.31
					c-1.25-2.41-2.53-4.91-3.56-7.43c2.34-1.68,4.67-3.55,6.99-5.65c7.43-6.74,3.02-15.67-0.52-22.84l-0.72-1.46
					c-1.82-3.73-1.48-7.4-1.18-10.64c0.28-3.04,0.55-5.91-1.33-7.86c-1.7-1.76-4.8-2.42-10.07-2.11v0
					c-11.02,0.88-17.81,9.91-19.2,25.5c-0.9,0.46-1.83,0.91-2.77,1.34c-13.73,6.31-31.31,9.9-42.95,12.28
					c-8.23,1.68-12.62,2.61-14.35,3.74c-1.88,1.22-2.38,4.05-2.24,7.19c-0.16,0.47-0.04,0.95,0.04,1.29c0.05,0.2,0.1,0.4,0.1,0.57
					c0,1.67,0.37,3.21,0.73,4.7c0.28,1.17,0.55,2.29,0.62,3.38c-18.12,15.48-57.78,25.85-101.4,25.85
					c-41.03,0-77.98-8.82-97.62-22.88c1.32-4.25,4.32-15.6-0.01-18.42c-1.73-1.12-6.11-2.05-14.34-3.73
					c-11.64-2.38-29.22-5.97-42.95-12.28c-0.95-0.43-1.87-0.88-2.77-1.34c-1.4-15.74-8.2-24.77-19.21-25.5
					c-0.05,0-0.1-0.01-0.15-0.01h-0.02c-5.16-0.27-8.22,0.38-9.9,2.12c-1.88,1.95-1.61,4.82-1.33,7.86
					c0.3,3.24,0.64,6.91-1.18,10.64l-0.71,1.45c-3.55,7.18-7.96,16.11-0.52,22.85C132.98,467.06,135.3,468.94,137.71,470.67z
					 M497.25,447.42l1.93-0.83l6.61,15.48l-1.93,0.82l-3.18-7.43l-7.37,3.15l3.18,7.43l-1.93,0.82l-6.61-15.47l1.93-0.83l2.67,6.24
					l7.37-3.15L497.25,447.42z M511.06,477.57c2.08,4.03,4.24,8.21,5.3,12.73c0.62,2.63,0.55,10.19,0.03,13.56
					c-2.81-5.29-8.23-13.13-13.22-13.41c-0.09-0.01-0.18-0.01-0.28-0.01c-1.26,0-2.96,0.5-4.36,2.65c-0.58,0.9-1.11,2.01-1.58,3.11
					c-0.5-6.32-2.33-12.28-4.27-17.92c4.98-2.02,9.98-4.52,14.94-7.83C508.65,472.89,509.87,475.26,511.06,477.57z M503.04,420.91
					c2.47,0.03,2.7,1.08,2.78,1.43c0.8,3.67-6.51,12.9-19.51,20.18C487.36,433.88,491.01,421.89,503.04,420.91z M485.49,452.48
					l0.73,1.77l-3.7,1.52l5.65,13.8l-1.94,0.79l-5.65-13.8l-3.68,1.5l-0.73-1.77L485.49,452.48z M469.61,458.19l13.94,13.36
					l-2.12,0.84l-3.33-3.22l-7.18,2.84l-0.24,4.63l-2.1,0.83L469.61,458.19z M456.53,477.35l0.81-14.53l9.33,15.36l-2.03,0.75
					l-5.68-9.71l-0.82,12.49l-8.71-8.97l1.97,11.08l-2.03,0.75l-2.88-17.74L456.53,477.35z M431.96,506.16l-7.72-14.96l1.9-0.98
					l7.72,14.96L431.96,506.16z M425.31,469.6c0.89-0.19,1.89-0.41,2.29-0.14c0.23,0.15,0.41,0.56,0.53,1.14
					c0.33,1.67-1.21,3.62-2.99,5.49c-0.62-2.38-1-4.47-1.19-6.24C424.42,469.8,424.87,469.7,425.31,469.6z M412.8,496.42l6.72,4.91
					l0.98-8.27l2.25-0.98l-1.32,10.95l2.93,6.71l-1.96,0.85l-2.93-6.71l-8.92-6.49L412.8,496.42z M402.65,499.46l13.56,13.82
					l-2.19,0.77l-3.24-3.33l-7.41,2.62l-0.44,4.63l-2.16,0.76L402.65,499.46z M389.05,517.54l2.22-14.43l7.96,16.13l-2.13,0.57
					l-4.8-10.18l-2.04,12.39l-7.95-9.71l0.92,11.22l-2.13,0.57l-1.19-17.95L389.05,517.54z M368.22,508.72l11.35,15.69l-2.28,0.44
					l-2.71-3.78l-7.72,1.48l-1.13,4.51l-2.25,0.43L368.22,508.72z M350.13,512.24c2.91-0.37,5.33,0.1,7.25,1.36
					c1.93,1.29,3.04,3.22,3.36,5.79c0.33,2.59-0.3,4.74-1.85,6.44c-1.55,1.7-3.82,2.75-6.78,3.12l-3.38,0.43l-2.1-16.7
					L350.13,512.24z M335.22,519.29c2.28,2.04,4.54,4.12,6.8,6.25l-0.71-12.42l2.13-0.12l1,17.5l-13.59-12.49l0.72,12.53l-2.13,0.12
					l-1.01-17.61C330.68,515.19,332.95,517.28,335.22,519.29z M318.79,513.12l7.98,17.64l-2.32-0.03l-1.9-4.24l-7.86-0.1l-2.01,4.19
					l-2.29-0.03L318.79,513.12z M294.24,511.61c1.94,2.42,3.89,4.8,5.87,7.11c1.97,2.34,3.92,4.71,5.87,7.13l1.02-12.39l2.13,0.17
					l-1.44,17.47l-11.74-14.24l-1.03,12.5l-2.13-0.17L294.24,511.61z M290.12,528.89l-2.29-0.35l-1.3-4.46l-7.77-1.18l-2.57,3.88
					l-2.27-0.34l10.73-16.13L290.12,528.89z M266.2,507.58l10.04,2.08l-0.39,1.88l-3.98-0.83l-3.03,14.61l-2.09-0.43l3.03-14.61
					l-3.96-0.82L266.2,507.58z M261.98,506.53l2.08,0.5l-3.97,16.36l-2.08-0.5L261.98,506.53z M249.65,503.2l3.17,0.89
					c1.81,0.51,3.13,1.29,3.95,2.38c0.8,1.08,1.01,2.37,0.6,3.83c-0.31,1.12-0.92,2.02-1.84,2.69c-0.93,0.69-2.06,0.95-3.4,0.78
					l3.23,8.51l-2.49-0.7l-2.89-8.21l-0.9-0.25l-1.92,6.86l-2.05-0.58L249.65,503.2z M233.27,496.89l1.18,14.54l9.94-10.68
					l-2.48,17.8l-2.08-0.72l1.74-11.11l-8.64,9.09l-1.12-12.48l-5.54,9.79l-2.08-0.73L233.27,496.89z M217.49,473.37
					c0.47-1.31,1.18-1.69,2.54-1.69c0.49,0,1.07,0.05,1.75,0.13c0.5,0.05,1.01,0.11,1.51,0.13c-0.07,1.28-0.55,2.86-1.01,4.39
					c-0.27,0.91-0.55,1.83-0.75,2.73c-0.21-0.17-0.41-0.34-0.62-0.5C218.36,476.51,216.86,475.14,217.49,473.37z M222.07,492.47
					l0.73,19.36l-2.13-0.9l-0.16-4.65l-7.24-3.06l-3.44,3.12l-2.11-0.89L222.07,492.47z M150.47,497.87c-0.47-1.1-1-2.21-1.58-3.11
					c-1.5-2.32-3.35-2.73-4.63-2.64c-4.99,0.29-10.42,8.12-13.22,13.41c-0.52-3.37-0.59-10.93,0.03-13.56
					c1.06-4.53,3.21-8.7,5.29-12.73c1.19-2.3,2.41-4.67,3.44-7.12c4.55,3.04,9.46,5.61,14.94,7.82
					C152.81,485.57,150.97,491.53,150.47,497.87z M195.89,485.07l-2.15-0.74l-0.43-4.62l-7.3-2.53l-3.19,3.36l-2.13-0.74
					l13.34-13.96L195.89,485.07z M175.86,462.2l0.65-1.81l9.47,3.42l-0.65,1.8l-3.76-1.36l-5.06,14.03l-1.97-0.71l5.06-14.02
					L175.86,462.2z M169.89,457.1l1.15,19.27l-2.12-0.82l-0.26-4.63l-7.2-2.8l-3.32,3.24l-2.1-0.82L169.89,457.1z M141.6,424.01
					c0.07-0.35,0.31-1.41,2.82-1.43c11.58,0.79,15.53,11.66,16.69,21.62C148.11,436.91,140.8,427.68,141.6,424.01z M148.21,447.56
					l-0.54,14.54l10.97-9.55l-4.5,17.39l-1.95-0.93l3-10.84l-9.52,8.12l0.35-12.5l-6.57,9.14l-1.95-0.93L148.21,447.56z"/>
				<polygon class="st1" points="220.28,496.7 214.83,501.79 220.44,504.16 				"/>
				<polygon class="st1" points="168.22,461.39 162.97,466.65 168.54,468.82 				"/>
			</g>
		</g>
		<g>
			<path class="st1" d="M365.44,359.03l-5.84,1.93c1.8,1.06,4.2,1.89,7.79,1.89c0.2,0,0.41,0,0.64-0.01c0.58,0,1.06,0.06,1.47,0.16
				h83c0.91-2.3,1.75-4.63,2.53-6.99h-82.42C370.45,357.17,368.08,358.2,365.44,359.03z"/>
			<path class="st1" d="M273.17,362.84c0.26,0.01,0.46,0.01,0.67,0.01c3.58,0,5.99-0.83,7.79-1.89l-5.86-1.93
				c-2.63-0.83-5-1.85-7.16-3.01h-82.93c0.79,2.36,1.63,4.69,2.53,6.99h83.51C272.12,362.9,272.59,362.85,273.17,362.84z"/>
			<path class="st1" d="M369.93,369.22c-3.23,2.04-9.83,4.08-16.39,4.13l-0.19,0c-0.59,0-1.14-0.1-1.65-0.3
				c-2.03,1.2-6.67,2.55-10.83,3.03h105.68c1.18-2.29,2.31-4.62,3.37-6.99h-79.84C370.03,369.13,369.97,369.19,369.93,369.22z"/>
			<path class="st1" d="M289.51,373.05c-0.5,0.2-1.05,0.3-1.63,0.3l-0.21,0c-6.55-0.06-13.16-2.09-16.29-4.07
				c-0.06-0.04-0.15-0.11-0.24-0.19h-80.37c1.06,2.36,2.18,4.69,3.37,6.99h106.2C296.18,375.6,291.54,374.24,289.51,373.05z"/>
			<path class="st1" d="M162.55,311.32c-3.65,0.96-6.5,2.97-8.48,6c-7.1,10.84-1.88,32.85,2.3,50.53c1.5,6.33,2.91,12.3,3.5,16.74
				c0.1,0.78,0.21,1.59,0.33,2.41c0.76,5.48,1.63,11.69,0.43,15.55l-0.37,1.21l1.23,0.28c3.95,0.89,8.89,4.75,13.26,8.14
				c0.65,0.51,1.3,1.01,1.93,1.49c3.56,2.73,8.02,6.94,12.75,11.4c12.92,12.19,28.94,27.29,41.74,27.29c0.29,0,0.59-0.01,0.88-0.03
				c3.66-0.2,6.86-1.71,9.54-4.45c-0.99,3.64-0.68,7.11,0.95,10.34c5.85,11.56,27.51,18.06,44.92,23.27
				c6.23,1.87,12.11,3.63,16.25,5.35c0.73,0.3,1.49,0.61,2.26,0.92c5.12,2.08,10.93,4.43,13.68,7.4l0.86,0.93l0.86-0.93
				c2.75-2.97,8.56-5.33,13.69-7.4c0.77-0.31,1.53-0.62,2.26-0.92c4.14-1.72,10.02-3.48,16.25-5.35
				c17.41-5.22,39.07-11.71,44.92-23.27c1.66-3.27,1.95-6.8,0.91-10.48c2.66,2.68,5.82,4.14,9.44,4.34
				c0.29,0.01,0.59,0.02,0.88,0.02c12.8,0,28.81-15.1,41.73-27.29c4.73-4.46,9.2-8.68,12.75-11.4c0.63-0.48,1.27-0.99,1.94-1.5
				c4.36-3.39,9.3-7.24,13.24-8.14l1.23-0.28l-0.37-1.21c-1.19-3.86-0.33-10.06,0.43-15.53c0.11-0.83,0.23-1.64,0.33-2.44
				c0.58-4.44,2-10.42,3.5-16.75c4.19-17.68,9.4-39.68,2.3-50.53c-2.01-3.07-4.91-5.09-8.63-6.03c3.65-0.96,6.5-2.97,8.48-6
				c7.09-10.84,1.88-32.85-2.31-50.54c-1.5-6.33-2.91-12.3-3.5-16.74c-0.1-0.79-0.22-1.6-0.33-2.43
				c-0.76-5.47-1.62-11.67-0.43-15.54l0.37-1.21l-1.23-0.28c-3.94-0.89-8.88-4.74-13.24-8.14c-0.66-0.51-1.31-1.02-1.94-1.5
				c-3.56-2.73-8.02-6.94-12.75-11.4c-12.93-12.19-28.94-27.29-41.73-27.29c-0.29,0-0.59,0.01-0.88,0.03
				c-3.66,0.21-6.86,1.71-9.54,4.45c0.99-3.64,0.68-7.11-0.95-10.34c-5.85-11.57-27.51-18.06-44.92-23.28
				c-6.23-1.86-12.11-3.63-16.25-5.34c-0.73-0.3-1.49-0.61-2.26-0.92c-5.12-2.08-10.93-4.43-13.68-7.4l-0.86-0.93l-0.86,0.93
				c-2.75,2.97-8.56,5.32-13.68,7.4c-0.77,0.31-1.53,0.62-2.26,0.92c-4.14,1.72-10.02,3.48-16.25,5.34
				c-17.41,5.22-39.08,11.71-44.92,23.28c-1.66,3.27-1.95,6.8-0.91,10.48c-2.65-2.68-5.82-4.14-9.44-4.34
				c-12.95-0.76-29.39,14.8-42.61,27.26c-4.73,4.46-9.2,8.67-12.75,11.4c-0.63,0.48-1.27,0.99-1.93,1.5
				c-4.36,3.4-9.3,7.24-13.24,8.14l-1.23,0.28l0.37,1.21c1.2,3.86,0.33,10.07-0.43,15.55c-0.11,0.83-0.23,1.64-0.33,2.42
				c-0.59,4.44-2,10.42-3.5,16.75c-4.19,17.68-9.4,39.69-2.31,50.54C155.93,308.36,158.84,310.38,162.55,311.32z M320.35,155.89
				c85.34,0,154.75,69.74,154.75,155.45c0,85.7-69.42,155.44-154.75,155.44c-85.33,0-154.74-69.73-154.74-155.44
				C165.61,225.62,235.02,155.89,320.35,155.89z"/>
			<path class="st1" d="M263.96,441.42h112.78c4.79-2.08,9.44-4.41,13.93-6.99H250.03C254.52,437.01,259.17,439.34,263.96,441.42z"
				/>
			<path class="st1" d="M320.35,453.12c13.72,0,26.99-1.96,39.54-5.61h-79.09C293.37,451.15,306.63,453.12,320.35,453.12z"/>
			<path class="st1" d="M354.7,311.4c-0.95-0.83-3.85-1.72-7.36-1.72c-1.58,0-3.11,0.18-4.53,0.53c-5.32,1.31-9.68,6.83-9.63,9.61
				c1.66,2.05,3.64,4.21,5.61,6.09c4.26,4.07,8.11,8.18,8.38,13.75c0.12,2.56-0.27,4.97-1.2,7.36c-1.93,4.97-6.38,7.85-10.51,9.51
				c12.01-0.53,20.73-3.27,25.3-7.99c3.01-3.1,4.37-7.17,4.05-12.09c-0.22-3.42-2.72-6.79-5.14-10.06
				c-3.41-4.6-6.93-9.36-4.86-14.89C354.79,311.47,354.75,311.44,354.7,311.4z"/>
			<path class="st1" d="M371.03,314.5c-1.88,0-4.69,0.2-7.37,1.14c-3.16,1.11-5.08,2.28-5.86,3.58c0.97,1.94,2.41,3.88,3.8,5.76
				c2.62,3.54,5.32,7.2,5.6,11.32c0.37,5.63-1.22,10.31-4.72,13.92c-4.24,4.37-11.22,7.13-20.78,8.25c0.69,0.01,1.37,0.02,2.04,0.02
				c14.19,0,25.65-3.21,32.28-9.04c4.13-3.63,6.1-8.01,5.85-13.01c-0.17-3.38-2.05-6.01-3.87-8.56c-2.5-3.49-5.32-7.43-2.15-12.82
				C375.02,314.78,373.29,314.5,371.03,314.5z"/>
			<path class="st1" d="M343.74,346.15c0.81-2.1,1.15-4.13,1.04-6.38c-0.23-4.69-3.74-8.42-7.64-12.13
				c-1.35-1.29-8.23-8.04-10.6-13.87l-0.38-0.93c-1.68-4.17-2.85-6.72-5.55-6.74c-2.7,0.02-3.99,2.78-5.67,6.95
				c-0.16,0.15-4.68,8.7-11.32,15.03c-3.73,3.55-6.96,7.18-7.17,11.69c-0.11,2.25,0.22,4.28,1.04,6.38
				c2.84,7.31,13.47,10.58,22.75,10.58l0.37,0h0.01h0.01l0.37,0C330.27,356.73,340.9,353.46,343.74,346.15z"/>
			<path class="st1" d="M276.41,336.45c-0.32,4.92,1.04,8.99,4.05,12.09c4.58,4.72,13.29,7.46,25.3,7.99
				c-4.14-1.66-8.58-4.54-10.51-9.51c-0.93-2.39-1.32-4.8-1.2-7.36c0.27-5.57,4.11-9.68,8.38-13.75c1.97-1.88,3.95-4.03,5.61-6.09
				c0.05-2.78-4.32-8.31-9.63-9.61c-1.42-0.35-2.95-0.53-4.53-0.53c-3.51,0-6.41,0.88-7.36,1.72c-0.05,0.04-0.08,0.08-0.11,0.11
				c2.08,5.52-1.45,10.28-4.86,14.89C279.13,329.66,276.64,333.02,276.41,336.45z"/>
			<path class="st1" d="M259.35,336.43c-0.25,5,1.72,9.38,5.85,13.01c6.63,5.83,18.1,9.04,32.28,9.04c0.68,0,1.36-0.01,2.04-0.02
				c-9.57-1.11-16.54-3.88-20.78-8.25c-3.5-3.61-5.09-8.29-4.72-13.92c0.27-4.12,2.98-7.78,5.6-11.32c1.4-1.88,2.84-3.83,3.8-5.76
				c-0.78-1.3-2.7-2.47-5.86-3.58c-2.68-0.94-5.49-1.14-7.37-1.14c-2.26,0-3.99,0.28-4.82,0.55c3.16,5.39,0.34,9.33-2.15,12.82
				C261.4,330.42,259.52,333.05,259.35,336.43z"/>
			<path class="st1" d="M292.31,364.44c0.52-0.33,0.95-0.61,1.38-0.91c0.9-0.62,1.45-1.21,1.97-1.79c0.27-0.29,0.55-0.59,0.87-0.88
				c-2.73-0.03-5.44-0.19-8.07-0.47l-0.01,0c-0.28,0.04-0.41,0.14-0.51,0.22c-0.35,0.27-0.67,0.54-1.01,0.82
				c-2.25,1.91-5.88,4.99-13.19,4.99l-0.25,0c2.47,1.38,8.21,3.29,14.23,3.34h0.01c0.61,0,0.66-0.22,0.69-0.4
				c-0.05-0.37-0.04-0.71,0.03-1.03C288.83,366.66,290.44,365.63,292.31,364.44z"/>
			<path class="st1" d="M301.37,372.86c1.52,0,2.87-0.18,3.92-0.51c0.76-0.24,1.28-0.55,1.52-0.9c-0.27-0.31-0.5-0.61-0.7-0.92
				c-1.68-2.59-2.57-6.76,0.42-9.98c0.03-0.03,0.06-0.07,0.09-0.1c-0.92,0.08-1.83,0.15-2.74,0.2c-4.47,0.56-5.34,1.51-6.45,2.72
				c-0.59,0.64-1.25,1.36-2.37,2.14c-0.45,0.31-0.9,0.6-1.34,0.88c-1.41,0.9-2.75,1.76-2.91,2.46c-0.05,0.22,0.03,0.5,0.25,0.84
				C292.16,371.41,296.89,372.86,301.37,372.86z"/>
			<path class="st1" d="M320.62,359.3h-0.02h-0.13c-6.51,0-10.38,0.91-12.19,2.86c-2.05,2.22-1.43,5.1-0.16,7.06
				c0.28,0.43,0.6,0.8,0.97,1.15l0.28,0.24c0.97,0.78,2.13,1.21,3.36,1.67c2.72,1.01,5.79,2.15,7.88,6.91
				c2.09-4.76,5.16-5.9,7.88-6.91c1.23-0.46,2.39-0.89,3.36-1.67l0.28-0.24c0.38-0.34,0.7-0.72,0.97-1.15
				c1.27-1.96,1.89-4.84-0.16-7.06c-1.8-1.95-5.68-2.86-12.19-2.86H320.62z"/>
			<path class="st1" d="M334.41,371.44c0.24,0.35,0.76,0.66,1.52,0.9c1.05,0.34,2.4,0.51,3.92,0.51c4.48,0,9.21-1.45,10.31-3.17
				c0.22-0.34,0.3-0.62,0.25-0.84c-0.15-0.71-1.5-1.57-2.91-2.46c-0.44-0.28-0.9-0.58-1.34-0.88c-1.12-0.77-1.78-1.5-2.37-2.14
				c-1.11-1.2-1.98-2.16-6.45-2.72c-0.91-0.06-1.82-0.12-2.74-0.2c0.03,0.03,0.06,0.07,0.09,0.1c2.99,3.23,2.09,7.39,0.42,9.98
				C334.91,370.83,334.69,371.13,334.41,371.44z"/>
			<path class="st1" d="M353.48,369.77h0.01c6.02-0.06,11.76-1.96,14.23-3.34l-0.25,0c-7.31,0-10.94-3.08-13.19-4.99
				c-0.34-0.29-0.66-0.56-1.01-0.82c-0.1-0.08-0.23-0.18-0.51-0.22l-0.01,0c-2.63,0.28-5.34,0.44-8.07,0.47
				c0.32,0.29,0.6,0.59,0.87,0.88c0.53,0.57,1.07,1.17,1.97,1.79c0.43,0.3,0.87,0.58,1.38,0.91c1.87,1.19,3.48,2.22,3.85,3.9
				c0.07,0.32,0.08,0.66,0.03,1.03C352.81,369.55,352.86,369.77,353.48,369.77z"/>
			<path class="st1" d="M290.63,415.35c0.72,0.3,10.58,3.17,12.42,3.42c3.18,0.44,6.59,0.34,9.12-1.86
				c0.19-0.16,0.36-0.33,0.51-0.49c0.48-0.52,0.85-1.07,1.07-1.64c1.31-3.31-1.85-7.38-11.8-9.79c-12.25-2.97-30.88-3.39-43.94,0.42
				c-7.4,2.17-10.46,5.26-10.4,8.34c0.02,0.83,0.26,1.66,0.71,2.48l0,0c0.82,1.48,2.32,2.89,4.36,4.13
				c0.97,0.59,2.07,1.12,3.29,1.61l0.01,0.01c2.13,0.85,4.6,1.55,7.28,2.11c7.33,1.53,16.2,2,23.79,1.57
				c11.04-0.63,10.23-3.99,7.84-5.42c-0.51-0.31-3.29-1.76-5.24-3.24C288.24,415.91,289.18,414.74,290.63,415.35z"/>
			<path class="st1" d="M298.95,420.7c0.08,0.22,0.15,0.44,0.19,0.66c0.13,0.62,0.13,1.27-0.03,1.91
				c-0.88,3.59-5.75,4.68-10.04,5.08h111.3c3.21-2.2,6.33-4.53,9.35-6.99H301.61C300.9,421.21,299.99,420.98,298.95,420.7z"/>
			<path class="st1" d="M262.7,426.86c-2.87-0.6-5.43-1.34-7.61-2.2l-0.12-0.03l-0.14-0.07c-1.34-0.54-2.56-1.14-3.6-1.78
				c-0.74-0.45-1.4-0.92-2.01-1.41h-18.23c3.02,2.45,6.14,4.78,9.35,6.99h33.4C269.81,428.06,266.03,427.56,262.7,426.86z"/>
			<path class="st1" d="M343.28,388.91c-0.46-1.31-0.29-2.81,0.45-3.92c0.44-0.67,1.09-1.23,1.97-1.73c0.77-0.43,1.72-0.79,2.78-1.1
				H197.47c1.38,2.37,2.82,4.7,4.33,6.99h141.57C343.34,389.06,343.31,388.98,343.28,388.91z"/>
			<path class="st1" d="M396.31,384.4c5.68,1.44,9.99,3.02,12.98,4.74h29.61c1.51-2.28,2.96-4.61,4.33-6.99h-58.49
				C388.87,382.76,392.82,383.52,396.31,384.4z"/>
			<path class="st1" d="M414.38,396.33c-0.18,1.44-0.98,2.87-2.38,4.23l-0.47,0.43c-0.47,0.41-1.02,0.82-1.61,1.23h19.23
				c1.9-2.27,3.73-4.6,5.49-6.99h-20.27C414.42,395.59,414.43,395.96,414.38,396.33z"/>
			<path class="st1" d="M259,402.21c6.09-1.56,13.39-2.4,21.28-2.4c7.95,0,15.86,0.85,22.27,2.4h27.1c-0.6-1.55-0.5-2.9-0.29-3.76
				c0.29-1.24,0.94-2.32,1.77-3.22H206.05c1.76,2.39,3.59,4.72,5.49,6.99H259z"/>
			<path class="st1" d="M244.8,413.81c-0.04-1.64,0.45-3.59,2.14-5.51h-29.99c2.26,2.41,4.61,4.74,7.04,6.99h21.01
				C244.88,414.79,244.81,414.3,244.8,413.81z"/>
			<path class="st1" d="M387.24,410.44l-0.96,0.18c-8.49,1.71-17.3,2.62-25.44,2.62c-8.17,0-18.56-0.94-25.25-4.94h-20.81
				c0.51,0.57,0.96,1.16,1.28,1.79c0.86,1.67,1.04,3.49,0.52,5.2h100.16c2.43-2.25,4.77-4.58,7.04-6.99h-27.94
				C393.17,409.08,390.3,409.8,387.24,410.44z"/>
			<path class="st1" d="M357.68,395.67c-1.41,0-3.2-0.27-5.1-0.56c-2.03-0.31-4.33-0.66-6.68-0.78c-0.58-0.03-1.18-0.05-1.78-0.05
				c-2.86,0-5.48,0.33-7.57,0.83c-2.89,0.69-7.35,4.46-2.24,8.74c4.22,4.26,13.64,6.61,26.54,6.61c7.98,0,16.58-0.89,24.91-2.57
				l0.92-0.18c10.66-2.23,19.26-5.51,22.99-8.78l0.41-0.37c0.94-0.91,1.46-1.78,1.56-2.59c0.17-1.41-1.03-5.09-16.01-8.9
				c-8.92-2.26-20.92-3.68-31.31-3.71h-0.58c-9.35,0.03-14.53,1.09-16.68,2.29c-0.5,0.28-0.83,0.56-1.02,0.85
				c-0.21,0.31-0.34,0.88-0.15,1.44c1.48,3.57,7.39,4.42,12.79,4.42c3.03,0.15,2.9,1.43,2.34,2.11
				C360.14,395.55,358.69,395.67,357.68,395.67z"/>
			<path class="st1" d="M439.1,351.17l-35.2-3.03c-0.09,0.93-0.2,1.85-0.32,2.78l35.21,3.03
				C438.89,353.03,439.01,352.1,439.1,351.17z"/>
			<path class="st1" d="M437.97,320.13l-34.88,6.21c0.15,0.92,0.29,1.84,0.42,2.76l34.91-6.21
				C438.28,321.97,438.12,321.05,437.97,320.13z"/>
			<path class="st1" d="M396.66,305.48c0.39,0.85,0.78,1.69,1.14,2.55l32.18-15.07c-0.37-0.86-0.76-1.7-1.15-2.55L396.66,305.48z"/>
			<path class="st1" d="M414.02,266.27c-0.58-0.73-1.15-1.47-1.74-2.18l-27.22,22.92c0.59,0.72,1.16,1.46,1.73,2.19L414.02,266.27z"
				/>
			<path class="st1" d="M392.76,245.39c-0.74-0.57-1.49-1.12-2.25-1.66l-20.7,28.97c0.75,0.55,1.49,1.11,2.23,1.69L392.76,245.39z"
				/>
			<path class="st1" d="M354.16,263.69l12.9-33.22c-0.86-0.36-1.73-0.68-2.6-1.02l-12.88,33.16
				C352.45,262.96,353.31,263.32,354.16,263.69z"/>
			<path class="st1" d="M203,353.93l34.73-2.98c-0.12-0.92-0.23-1.85-0.32-2.78l-34.72,2.98C202.78,352.08,202.89,353.01,203,353.93
				z"/>
			<path class="st1" d="M238.22,326.3l-34.41-6.12c-0.15,0.92-0.31,1.84-0.44,2.76l34.44,6.13
				C237.93,328.14,238.07,327.21,238.22,326.3z"/>
			<path class="st1" d="M211.77,293.07l31.78,14.88c0.36-0.86,0.75-1.7,1.14-2.55l-31.77-14.88
				C212.53,291.36,212.14,292.21,211.77,293.07z"/>
			<path class="st1" d="M256.35,286.89l-26.94-22.68c-0.6,0.72-1.16,1.46-1.74,2.19l26.94,22.68
				C255.18,288.34,255.76,287.61,256.35,286.89z"/>
			<path class="st1" d="M268.43,275.04c0.73-0.58,1.45-1.17,2.2-1.73l-20.96-28.43c-0.74,0.56-1.47,1.15-2.2,1.73L268.43,275.04z"/>
			<path class="st1" d="M286.28,264.08l-14.37-32.34c-0.85,0.38-1.71,0.75-2.55,1.15l14.38,32.37
				C284.59,264.86,285.43,264.47,286.28,264.08z"/>
			<path class="st1" d="M404.27,340.01l61.47-2.72c-0.02-0.93-0.04-1.86-0.08-2.79l-61.47,2.72
				C404.23,338.15,404.26,339.08,404.27,340.01z"/>
			<path class="st1" d="M401.34,318.38l58.8-18.58c-0.26-0.9-0.52-1.79-0.79-2.68l-58.78,18.57
				C400.85,316.58,401.1,317.48,401.34,318.38z"/>
			<path class="st1" d="M392.9,298.26l52.07-33.21c-0.48-0.8-1-1.57-1.5-2.36l-52.02,33.18
				C391.95,296.66,392.43,297.46,392.9,298.26z"/>
			<path class="st1" d="M421.24,235.46c-0.67-0.65-1.34-1.3-2.02-1.93l-41.68,45.54c0.68,0.63,1.36,1.27,2.02,1.93L421.24,235.46z"
				/>
			<path class="st1" d="M391.93,213.64c-0.81-0.46-1.61-0.93-2.44-1.37l-29,54.51c0.82,0.45,1.62,0.92,2.42,1.39L391.93,213.64z"/>
			<path class="st1" d="M237.11,337.21l-60.99-2.7c-0.03,0.93-0.06,1.86-0.08,2.79l60.99,2.7
				C237.04,339.07,237.08,338.14,237.11,337.21z"/>
			<path class="st1" d="M240.75,315.63l-58.34-18.43c-0.27,0.89-0.53,1.79-0.79,2.68l58.36,18.44
				C240.23,317.42,240.47,316.51,240.75,315.63z"/>
			<path class="st1" d="M249.92,295.76l-51.67-32.96c-0.5,0.79-1.01,1.56-1.49,2.36l51.71,32.99
				C248.94,297.35,249.42,296.55,249.92,295.76z"/>
			<path class="st1" d="M262.89,279.91l-42.2-44.58c-0.67,0.64-1.36,1.27-2.02,1.93l42.23,44.62
				C261.55,281.2,262.22,280.55,262.89,279.91z"/>
			<path class="st1" d="M244.85,216.58l30.99,53.16c0.79-0.5,1.58-0.99,2.38-1.47l-30.97-53.13
				C246.44,215.62,245.64,216.09,244.85,216.58z"/>
			<path class="st1" d="M221.79,218.39l-2.09-1.81l-3.31,3.81c-0.68,0.78-1,1.66-0.97,2.64c0.02,1.03,0.39,1.85,1.1,2.47
				c0.89,0.8,2.17,1.4,3.85,1.79c1.66,0.37,3.57,0.49,5.73,0.36l0.16-1.24c-1.32-0.02-2.56-0.18-3.71-0.47
				c-1.08-0.33-1.93-0.76-2.54-1.29c-0.56-0.48-0.88-1.1-0.96-1.84c-0.08-0.75,0.11-1.39,0.58-1.93L221.79,218.39z"/>
			<path class="st1" d="M237.76,187.08c0.44-0.25,0.91-0.4,1.41-0.45c0.49-0.07,0.94-0.02,1.35,0.14l4.99,2.13
				c0.8-0.46,0.07-1.23-2.2-2.33c-1.14-0.57-1.92-0.92-2.32-1.07c-1.08-0.5-2.18-0.77-3.29-0.83c-1.11-0.03-2.03,0.16-2.77,0.58
				c-0.42,0.29-0.73,0.58-0.94,0.86l2.65,1.87C236.97,187.62,237.34,187.32,237.76,187.08z"/>
			<path class="st1" d="M251.67,181.8c0.45-0.24,0.86-0.45,1.24-0.61c0.68-0.29,1.56-0.42,2.65-0.4c1.18,0.07,2.41,0.29,3.68,0.67
				l1.74-0.75l-4.57-4.04c-0.69-0.73-1.44-1.19-2.26-1.39c-0.82-0.22-1.62-0.17-2.38,0.16c-0.83,0.41-1.42,0.8-1.78,1.19l2.68,1.85
				c0.01-0.21,0.13-0.4,0.36-0.57c0.3-0.23,0.59-0.41,0.86-0.52c0.4-0.17,0.88-0.15,1.42,0.06c0.61,0.24,1.19,0.64,1.76,1.2
				l2.75,2.01l-0.32,0.14c-2.63-0.8-4.66-1.31-6.09-1.54c-1.6-0.28-2.74-0.28-3.42,0.01c-0.35,0.13-0.66,0.28-0.92,0.47
				c-0.23,0.17-0.4,0.35-0.52,0.53l2.43,2.15C251.11,182.22,251.34,182.02,251.67,181.8z"/>
			<path class="st1" d="M221.15,212.43c0.15,0.02,0.29,0.06,0.4,0.11c0.21,0.09,0.41,0.23,0.6,0.43c0.48,0.47,0.58,1.16,0.31,2.09
				c-0.27,0.89-0.8,1.71-1.6,2.48c1.79,1.16,3.63,1.81,5.5,1.98c1.82,0.15,3.24-0.27,4.26-1.23c0.47-0.44,0.83-0.98,1.09-1.61
				c0.33-0.66,0.52-1.37,0.59-2.14l2.14,2.26l3.56-0.76l-9.77-10.3c1.46-1.29,2.94-2.54,4.45-3.77l7.51,9.54l3.73-0.29l-8.8-11.19
				c1.64-1.27,3.29-2.51,4.99-3.71l2.33,3.58l-1.3,0.85c-0.21,0.14-0.33,0.32-0.34,0.55c-0.08,0.22-0.05,0.43,0.09,0.64
				c0.39,0.6,1.35,1.04,2.89,1.34c1.54,0.29,2.61,0.24,3.23-0.16c0.23-0.15,0.39-0.37,0.49-0.65c0.03-0.29-0.03-0.56-0.18-0.79
				l-4.62-7.11c1.15-0.77,2.3-1.54,3.47-2.28l6.89,10.6l3.55-0.25l-7.8-11.99c3.56-2.14,7.21-4.15,10.96-5.97l1.94,3.88l-6.18,3.09
				c-0.35,0.17-0.58,0.44-0.68,0.8c-0.12,0.37-0.1,0.72,0.06,1.05c0.39,0.78,1.11,1.43,2.16,1.93c1.09,0.54,1.92,0.67,2.47,0.39
				c0.19-0.09,0.29-0.22,0.31-0.39c0.09-0.17,0.09-0.36,0-0.54l-0.54-1.08c-0.1-0.21-0.12-0.42-0.05-0.63
				c0.02-0.22,0.11-0.37,0.28-0.45l3.4-1.7l2.47,4.95l3.55,0.16l-6.38-12.77c3.93-1.81,7.96-3.45,12.07-4.89l1.69,4.62
				c-1.09-0.63-2.11-1.07-3.05-1.31c-0.95-0.24-1.69-0.27-2.23-0.07c-1.15,0.4-2.02,1.12-2.59,2.16c-0.56,1.01-0.65,2.05-0.26,3.11
				c0.41,1.12,1.39,2.07,2.94,2.82c1.53,0.77,2.86,0.94,3.98,0.53c0.5-0.18,0.97-0.53,1.42-1.04c0.51-0.48,0.97-1.09,1.39-1.83
				l1.01,2.76l3.57,0.72l-2.25-6.17c0.29-0.82,0.69-1.5,1.2-2.06c0.52-0.58,1.08-0.98,1.66-1.19c0.32-0.12,0.63-0.08,0.92,0.11
				c0.33,0.15,0.56,0.41,0.69,0.78c0.24,0.65,0.33,1.41,0.28,2.29c-0.1,0.94-0.31,1.88-0.63,2.81l3.25,0.84
				c0.5-2,0.45-3.82-0.16-5.46c-0.42-1.15-1.28-2.13-2.59-2.95c-1.34-0.84-2.46-1.09-3.37-0.76c-0.43,0.16-0.85,0.4-1.25,0.71
				c-0.46,0.36-0.9,0.81-1.32,1.33l-1.36-3.73c3.06-1,6.15-1.92,9.3-2.71l-0.7-0.61l0.01,0l-0.14-0.1l-1.95-1.7
				c-30.36,8.1-56.78,25.92-75.74,49.91l3.19,0.85C214.58,219.39,217.79,215.84,221.15,212.43z M275.21,186.76
				c-0.64,0.65-1.26,1.09-1.84,1.3c-0.43,0.16-0.83,0.15-1.18-0.01c-0.37-0.13-0.62-0.39-0.75-0.75c-0.23-0.7-0.19-1.35,0.13-1.96
				c0.27-0.66,0.74-1.12,1.41-1.36c0.54-0.2,1.18-0.27,1.91-0.22c0.7,0.04,1.4,0.24,2.09,0.6
				C276.44,185.3,275.85,186.1,275.21,186.76z M225.93,207.81l3.88,4.09c-0.15,1.22-0.37,2.26-0.67,3.11
				c-0.3,0.86-0.69,1.51-1.18,1.97c-0.43,0.41-0.95,0.68-1.56,0.81c-0.59,0.15-1.18,0.13-1.76-0.05c-0.06-0.07-0.1-0.12-0.12-0.17
				c-0.03-0.1-0.03-0.16,0.01-0.2c0.73-0.97,1.21-1.91,1.44-2.8c0.22-0.94,0.15-1.58-0.22-1.94c-0.27-0.32-0.75-0.61-1.44-0.87
				c-0.58-0.17-1.3-0.3-2.12-0.41C223.42,210.16,224.67,208.98,225.93,207.81z"/>
			<path class="st1" d="M267.59,171.66c0.49-0.15,0.98-0.19,1.48-0.12c0.49,0.04,0.92,0.19,1.29,0.44l4.39,3.19
				c0.88-0.27,0.34-1.19-1.62-2.76c-0.99-0.81-1.66-1.33-2.02-1.56c-0.94-0.73-1.95-1.24-3.02-1.55c-1.07-0.28-2.01-0.3-2.83-0.05
				c-0.47,0.19-0.84,0.4-1.11,0.62l2.17,2.42C266.7,172.02,267.13,171.8,267.59,171.66z"/>
			<path class="st1" d="M328.06,187.17c0.59-0.33,1.25-0.45,1.99-0.37l1.72,0.19l-1.15-2.21l-1.55-0.17
				c-0.98-0.11-1.86,0.06-2.63,0.51c-0.75,0.47-1.17,1.09-1.28,1.84c-0.15,1.37,0.26,2.63,1.22,3.78c1,1.2,2.18,1.87,3.53,2.02
				c0.92,0.1,1.72,0.06,2.41-0.12c0.71-0.15,1.39-0.44,2.04-0.85l-1.11-2.55c-0.7,0.48-1.5,0.87-2.39,1.16
				c-0.81,0.24-1.58,0.31-2.28,0.24c-0.48-0.05-0.86-0.28-1.14-0.68c-0.3-0.43-0.42-0.89-0.37-1.4
				C327.12,187.98,327.44,187.52,328.06,187.17z"/>
			<path class="st1" d="M355.7,181.04c0.63-0.41,1.29-0.52,1.98-0.33l3.17,0.84l0.71-2.67l-4.88-1.29c-1-0.27-1.93-0.17-2.79,0.3
				c-0.91,0.47-1.49,1.17-1.73,2.08c-0.33,1.15-0.3,2.57,0.09,4.24c0.4,1.65,1.13,3.42,2.21,5.3l1.18-0.4
				c-0.57-1.2-0.97-2.38-1.21-3.54c-0.18-1.12-0.17-2.07,0.04-2.85C354.66,182,355.07,181.45,355.7,181.04z"/>
			<path class="st1" d="M415.84,207.01c-1.11,0.25-1.73,1.04-2,2.7c-0.29,1.61-0.09,3.44,0.6,5.48c-1.35,0.37-2.62,0.32-3.79-0.15
				c0.23-0.49,0.35-0.89,0.35-1.22c0.03-0.39-0.04-0.68-0.21-0.86c-0.29-0.29-0.69-0.42-1.19-0.37c-0.5,0.08-0.96,0.32-1.37,0.73
				c-0.43,0.42-0.55,0.98-0.38,1.68c0.17,0.7,0.58,1.32,1.21,1.86l-1.01,4.88l1.71,0.5l0.15-4.76c2.08,0.53,3.96,0.68,5.64,0.45
				c1.69-0.19,3.03-0.76,4.02-1.74c1.8-1.89,2.62-5.38,0.2-8.11C418.99,207.27,417.76,206.7,415.84,207.01z M418.65,211.44
				c-0.11,0.68-0.42,1.3-0.93,1.85c-0.45,0.49-0.88,0.85-1.28,1.09c-0.4,0.27-0.74,0.42-1.03,0.45c-0.26-1.05-0.35-1.99-0.27-2.83
				c0.05-0.81,0.26-1.41,0.62-1.81c0.38-0.41,0.81-0.67,1.3-0.78c0.47-0.09,0.84,0.01,1.11,0.32
				C418.58,210.17,418.74,210.75,418.65,211.44z"/>
			<path class="st1" d="M411.65,229.79c-0.95-0.12-1.78-0.59-2.46-1.39c-1.23-1.4-2.15-2.76-2.75-4.06
				c-0.6-1.27-0.88-2.46-0.82-3.57l-1.22-0.1c-0.11,1.64,0.12,3.28,0.7,4.91c0.63,1.73,1.58,3.33,2.84,4.8
				c0.93,1.09,1.99,1.74,3.18,1.96c1.22,0.23,2.26-0.02,3.1-0.74c0.72-0.61,1.13-1.6,1.23-2.97c0.11-1.36-0.15-2.4-0.76-3.12
				c-0.33-0.38-0.76-0.68-1.3-0.89c-0.55-0.26-1.18-0.41-1.9-0.47l-0.1,2.81c0.58-0.07,1.09-0.04,1.54,0.1
				c0.53,0.16,0.9,0.36,1.11,0.6s0.33,0.51,0.35,0.79c0.06,0.28-0.02,0.51-0.22,0.69C413.47,229.73,412.63,229.95,411.65,229.79z"/>
			<path class="st1" d="M301.18,183.42c1.54,1.08,3.07,1.54,4.58,1.4c1.08-0.1,1.95-0.61,2.63-1.5c0.7-0.9,0.99-1.92,0.88-3.07
				c-0.05-0.48-0.16-0.92-0.34-1.32c-0.17-0.38-0.42-0.75-0.73-1.11c0.69,0.47,1.33,0.79,1.9,0.96c0.58,0.22,1.14,0.31,1.69,0.25
				c0.64-0.11,1.09-0.27,1.34-0.48l0.47,4.82l3.26,1.42l-1.36-14.1c1.86-0.08,3.72-0.12,5.6-0.12c0.29,0,0.57,0.01,0.86,0.01
				l-0.27,5.67l-1.04-0.05c-0.25-0.01-0.45,0.07-0.6,0.25c-0.19,0.13-0.29,0.32-0.3,0.57c-0.03,0.53,0.52,1.41,1.64,2.64
				c1.12,1.23,1.94,1.86,2.47,1.88c0.18,0.01,0.34-0.08,0.46-0.25c0.17-0.22,0.27-0.47,0.28-0.75l0.06-1.38l5.18,0.25l-0.18,3.8
				l3.01,2.22l0.68-14.31c4.36,0.38,8.67,0.96,12.91,1.73l-0.39,2.32l-4.43-0.74c-1.09-0.18-2.08-0.01-2.96,0.52
				c-0.86,0.56-1.37,1.3-1.53,2.23c-0.22,1.34-0.08,2.79,0.43,4.35c0.46,1.57,1.26,3.2,2.4,4.89l1.14-0.51
				c-0.74-1.01-1.27-2.05-1.58-3.1c-0.28-1.1-0.34-2.15-0.17-3.15c0.13-0.77,0.51-1.36,1.14-1.77c0.59-0.46,1.27-0.63,2.05-0.5
				l3.07,0.51l-1.2,7.16l2.72,2.56l2.38-14.17c8.09,1.66,15.94,4.01,23.46,7l-1.6,4.29c-0.4-1.18-0.96-2.2-1.69-3.07
				c-0.78-0.88-1.58-1.47-2.4-1.78c-1.27-0.5-2.47-0.54-3.6-0.13c-1.15,0.38-1.92,1.1-2.32,2.16c-0.47,1.25-0.28,2.75,0.57,4.49
				c0.84,1.76,1.89,2.88,3.14,3.35c0.69,0.26,1.43,0.36,2.21,0.31c0.77-0.03,1.55-0.24,2.34-0.64l-0.97,2.59l2.19,3.03l5.02-13.43
				c1.95,0.83,3.88,1.69,5.78,2.6l-2.67,5.07l-0.92-0.48c-0.22-0.12-0.44-0.13-0.65-0.03c-0.23,0.04-0.4,0.17-0.52,0.39
				c-0.25,0.47-0.12,1.5,0.37,3.08c0.49,1.59,0.97,2.5,1.44,2.75c0.16,0.09,0.34,0.07,0.53-0.03c0.25-0.13,0.44-0.32,0.57-0.56
				l0.64-1.22l4.59,2.42l-1.77,3.36l1.78,3.28l6.69-12.7c1.65,0.96,3.29,1.96,4.9,2.99l-6.75,10.34l1.47,3.44l7.88-12.08
				c3.39,2.27,6.68,4.68,9.86,7.23l-2.7,3.46l-5.44-4.26c-0.31-0.24-0.65-0.33-1.02-0.27c-0.39,0.05-0.7,0.22-0.92,0.51
				c-0.54,0.69-0.81,1.62-0.82,2.78c-0.02,1.22,0.22,2.02,0.71,2.4c0.16,0.13,0.32,0.17,0.48,0.11c0.2,0.01,0.36-0.07,0.49-0.23
				l0.75-0.95c0.14-0.18,0.33-0.29,0.55-0.31c0.2-0.07,0.38-0.06,0.52,0.06l2.99,2.34l-3.41,4.35l1.38,3.28l8.83-11.29
				c1.29,1.08,2.57,2.19,3.82,3.31l2.08-2.19c-25.46-22.99-59.16-37.01-96.09-37.01c-4.26,0-8.48,0.19-12.64,0.55l1.91,2.89
				c0.67-0.05,1.36-0.08,2.03-0.12l0.39,4.07c-0.28,0.42-0.62,0.75-1.01,1c-0.39,0.25-0.82,0.39-1.28,0.44
				c-0.89,0.09-1.59,0.11-2.08,0.06c-0.56-0.02-0.97-0.1-1.24-0.26c0.45-0.39,0.78-0.86,1.01-1.42c0.22-0.55,0.31-1.11,0.26-1.66
				c-0.11-1.1-0.85-2.12-2.24-3.05c-1.36-0.93-2.72-1.33-4.07-1.2c-0.67,0.06-1.34,0.29-2.02,0.68c-0.71,0.35-1.35,0.82-1.94,1.44
				l1.76,2.09c0.59-0.61,1.28-1.15,2.06-1.62c0.73-0.39,1.41-0.62,2.05-0.68c0.57-0.06,1.07,0.06,1.49,0.34
				c0.45,0.3,0.69,0.7,0.74,1.18c0.07,0.73-0.05,1.39-0.36,1.98c-0.16,0.52-0.58,0.84-1.26,0.96c-0.4-0.08-0.87-0.05-1.42,0.07
				c-0.61,0.18-1.21,0.43-1.8,0.76l1.45,2.46c1.11-0.22,2.22-0.74,3.32-1.54c0.25,0.21,0.45,0.45,0.59,0.74
				c0.14,0.22,0.22,0.52,0.26,0.91c0.1,0.85-0.11,1.62-0.64,2.32c-0.61,0.68-1.32,1.07-2.15,1.14c-1.05,0.1-2.14-0.2-3.25-0.9
				c-1.11-0.75-2.07-1.78-2.87-3.09l-0.96,0.79C298.26,180.81,299.59,182.32,301.18,183.42z M367.22,187.26
				c-1.12,0.1-2.11-0.01-2.97-0.34c-0.62-0.26-1.09-0.64-1.41-1.16c-0.3-0.53-0.36-1.02-0.19-1.47c0.24-0.72,0.95-1.22,2.11-1.5
				c1.15-0.26,2.27-0.19,3.35,0.22c0.52,0.19,1.03,0.58,1.52,1.16c0.47,0.57,0.86,1.26,1.15,2.05
				C369.6,186.76,368.41,187.11,367.22,187.26z M384.22,185.57c1.54,0.78,3.07,1.59,4.58,2.43l-2.71,5.14l-4.58-2.42L384.22,185.57z
				 M325.06,170.62c1.73,0.05,3.46,0.13,5.18,0.24l-0.27,5.77l-5.18-0.25L325.06,170.62z"/>
			<path class="st1" d="M415.03,224.38l0.96,3.43l10.1-9.98c0.75,0.84,1.51,1.68,2.24,2.54l0.87-3.63
				c-1.79-2.04-3.64-4.03-5.54-5.97l-2.14,2.15c0.84,0.86,1.65,1.74,2.47,2.61L415.03,224.38z"/>
			<rect x="421.24" y="226.85" class="st1" width="3.95" height="3.95"/>
			<rect x="425.6" y="222.54" class="st1" width="3.95" height="3.95"/>
			<path class="st1" d="M300.04,279.33c0.02,0,0.03,0.01,0.04,0.02c-1.25,2.39-0.87,4.33-0.25,5.6c0.84,1.73,2.59,3.13,5.21,4.17
				c0,0.05,0,0.11,0,0.16c0,3.04,2.9,5.52,7.83,6.77c0.23,2.34,2.7,5.5,7.71,5.5c0.66,0,1.36-0.05,2.33-0.23
				c2.78-0.84,4.62-2.89,4.79-5.27c4.92-1.25,7.82-3.72,7.82-6.77c0-0.31-0.03-0.62-0.09-0.93c3.43-2,5.3-4.48,5.2-6.94
				c-0.03-0.72-0.23-1.39-0.57-1.98c5.07-5.07,7.91-10.02,9.3-14.68l0,0c0.09-0.32,0.2-0.62,0.28-0.94c0.4-1.82,0.67-3.94,0.71-4.29
				c0.34-3.96-0.18-7.94-1.51-11.64l-1.34-3.08c-1.15-2.22-2.58-4.21-4.28-5.91c-0.43-0.43-0.85-0.83-1.27-1.23l-0.06-0.06
				l-1.71-1.62c-0.45-0.42-0.9-0.83-1.34-1.23c-6.03-5.48-10.38-9.44-8.99-18.87c1.6-8.73-1.21-17.82-4.8-20.12
				c-0.25-0.16-0.5-0.26-0.75-0.36c-0.16-1.35-0.29-2.15-0.4-2.17c-0.98-1.8-2.55-2.3-3.56-2.44c-0.25-0.03-0.5-0.04-0.74-0.04
				c-1.75,0-4.88,0.75-6.17,5.77c-0.84,3.27-0.78,7.72-0.72,12.03c0.01,0.86,0.02,1.72,0.03,2.4c-0.33,7.36-7.15,16.39-12.24,22.53
				c0,0-3.9,4.2-7.25,10.22C290.7,248.27,280.79,266.56,300.04,279.33z M320.83,297.68c-2,0-3.76-1.1-3.76-2.35
				c0-0.21,0.05-0.43,0.15-0.63c0.59,0.07,1.19,0.12,1.8,0.15c0.59,0.03,1.19,0.05,1.85,0.05c1.21,0,2.41-0.07,3.57-0.2
				c0.1,0.21,0.15,0.42,0.15,0.63C324.59,296.59,322.84,297.68,320.83,297.68z M324.8,292.62c-0.78,0.11-1.57,0.18-2.35,0.22
				c-0.54,0.03-1.09,0.04-1.65,0.04c-1.34,0-2.67-0.09-3.93-0.26c-4.77-0.65-7.61-2.39-7.61-3.7c0-0.1,0.02-0.2,0.05-0.3
				c3.6,0.75,7.52,0.91,10.21,0.91c5.18,0,9.94-0.57,12.53-1.48c0.24,0.3,0.37,0.59,0.37,0.87
				C332.41,290.23,329.56,291.97,324.8,292.62z M302.2,237.68l0.21-0.25c6.45-7.65,13.91-17.55,14.31-26.34
				c-0.01-0.84-0.01-1.71-0.03-2.6c-0.06-4.04-0.11-8.21,0.59-10.96c0.63-2.48,1.59-2.76,2.25-2.76c0.11,0,0.22,0.01,0.31,0.02
				c0.49,0.07,0.78,0.71,0.87,1.92c0.06,0.79-0.05,2.96-0.16,5.31c-0.25,5.2-0.58,12.33,0.15,15.44c0.83,3.52,2.44,7.02,4,10.41
				c2.04,4.43,3.97,8.62,4.11,12.53c0.25,7.01-3.16,7.58-5.66,8c-1.14,0.19-2.56,0.42-2.56,1.8c0,0.54,0.41,1.11,1.16,1.11
				c0.29,0,0.61-0.08,1.13-0.21c0.79-0.2,1.98-0.5,3.33-0.5c0.81,0,1.58,0.11,2.3,0.32c2.16,0.64,3.83,2.19,4.48,4.16
				c0.59,1.8,0.62,4.85-2.58,9.08c-0.66,0.87-2.13,2.03-5.44,2.66c-0.98,0.18-1.07,0.79-1.04,1.14c0.04,0.46,0.42,0.92,1.17,0.92
				c0.32-0.01,0.64-0.01,0.95-0.01c4.96,0,8.7,1.06,10.54,2.99c0.83,0.86,1.22,1.88,1.17,3.01c-0.1,2.19-3.12,3.02-5.14,3.58
				c-1.4,0.38-2.33,0.64-2.4,1.61l-0.02,0.48l0.69,0.65h0.43c0.27,0,0.58-0.08,1.2-0.25c1.36-0.37,2.51-0.57,3.33-0.57
				c0.37,0,0.67,0.04,0.9,0.11c0.66,0.22,0.75,0.53,0.76,0.74c0.05,1.11-1.7,3.07-5.66,4.74l-0.13,0.07l-0.01-0.01
				c-1.95,0.81-6.22,1.33-10.89,1.33c-7.25,0-15.72-1.36-17.17-4.35c-0.36-0.75-0.22-1.65,0.41-2.68c0.15,0.2,0.37,0.39,0.69,0.55
				c4.77,2.54,11.17,2.92,14.56,2.92c2.34,0,4.02-0.18,4.75-0.33c0.93-0.19,2.33-0.49,2.22-1.63c-0.07-0.69-0.62-1.04-1.63-1.04
				c-0.15,0-0.33,0.01-0.53,0.02c-0.71,0.05-1.8,0.11-3.03,0.11c-4.58,0-9.1-0.89-14.2-2.77c-2.53-0.76-7.49-3.76-8.54-4.6
				c-3.74-2.98-5.86-8.04-5.86-14.13C292.13,249.6,299.19,241.25,302.2,237.68z"/>
			<g>
				<path class="st1" d="M398.82,360.3l-3.55-0.91c1.61-6.26,2.43-12.74,2.43-19.27c0-33.33-21.24-62.75-52.87-73.21l1.15-3.48
					c33.12,10.96,55.38,41.77,55.38,76.68C401.36,346.95,400.5,353.74,398.82,360.3z"/>
			</g>
			<g>
				<path class="st1" d="M242.42,360.35c-1.7-6.58-2.56-13.39-2.56-20.24c0-33.07,19.81-62.47,50.46-74.88l1.38,3.39
					c-29.27,11.85-48.17,39.91-48.17,71.49c0,6.54,0.82,13.04,2.44,19.33L242.42,360.35z"/>
			</g>
		</g>
		<g>
			<path class="st1" d="M591.64,456.7h69.75v-47.22c0-10.73,0-23.61,27.9-23.61c0,0-2.15,12.88-2.15,23.61v107.52
				c0,10.73,2.15,23.4,2.15,23.4c-27.9,0-27.9-12.88-27.9-23.61v-47.22h-69.75v47.22c0,10.73,0,23.61-27.9,23.61
				c0,0,2.15-12.66,2.15-23.4V409.49c0-10.73-2.15-23.61-2.15-23.61c27.9,0,27.9,12.88,27.9,23.61V456.7z"/>
			<path class="st1" d="M813.83,385.88c44.43,0,75.55,34.55,75.55,77.26s-31.12,77.26-75.55,77.26c-44.43,0-75.55-34.55-75.55-77.26
				S769.4,385.88,813.83,385.88z M813.83,529.67c28.54,0,48.72-29.83,48.72-66.53c0-36.7-20.17-66.53-48.72-66.53
				s-48.72,29.83-48.72,66.53C765.11,499.84,785.28,529.67,813.83,529.67z"/>
			<path class="st1" d="M985.14,398.54c-20.6,0-30.48,10.95-30.48,22.97c0,6.01,3.01,11.59,8.8,14.38l53.65,26.18
				c16.1,7.94,23.61,21.03,23.61,34.12c0,21.46-19.96,43.14-55.8,43.14c-17.17,0-32.19-0.86-52.15-1.07l11.38-16.1
				c12.88,3.01,28.33,4.94,40.56,4.94c23.82,0,34.98-12.02,34.98-23.18c0-6.22-3.43-12.23-10.3-15.45l-52.58-25.97
				c-14.38-7.08-21.89-20.82-21.89-34.77c0-20.39,16.1-40.78,50.22-40.78c15.24,0,30.69,0.86,48.29,1.07
				c0,1.5-0.21,14.38-15.67,14.38C1004.89,400.26,994.8,398.54,985.14,398.54z"/>
			<path class="st1" d="M1198.31,428.59c0,25.54-23.18,42.49-50.65,42.49c-9.23,0-18.67-0.64-27.9-0.64v46.36
				c0,10.73,0,23.61-27.9,23.61c0,0,2.15-12.88,2.15-23.61V409.49c0-10.73-2.15-21.46-2.15-21.46h31.12c4.72,0,8.37,0,12.23-0.21
				c3.86,0,7.94-0.21,12.45-0.21C1175.14,387.59,1198.31,402.83,1198.31,428.59z M1119.76,398.75v61.6
				c8.37,0.43,17.6,0.64,23.61,0.64c15.67,0,28.76-11.59,28.76-32.41c0-20.17-13.09-30.26-28.76-30.26
				C1135.65,398.33,1127.92,398.75,1119.76,398.75z"/>
			<path class="st1" d="M1281.64,538.26h-25.75V409.49c0-10.73,0-23.61,27.9-23.61c0,0-2.15,12.88-2.15,23.61V538.26z"/>
			<path class="st1" d="M1331.7,388.02h143.8c0,0.86-0.21,13.31-10.73,13.31c-13.52-0.21-20.6-0.86-36.27-0.86h-10.95v137.79h-27.9
				V400.47h-10.94c-15.67,0-22.75,0.64-36.27,0.86C1331.92,401.33,1331.7,388.88,1331.7,388.02z"/>
			<path class="st1" d="M1588.23,482.45h-52.8l-17.38,38.2c-4.51,9.66-8.8,19.75-25.11,19.75c0,0,6.22-9.87,10.73-19.75
				l65.24-143.37l65.24,143.37c4.51,9.87,10.73,19.75,10.73,19.75c-29.83,0-34.55-10.09-39.06-19.75L1588.23,482.45z
				 M1541.23,469.58h41.21l-20.6-45.07L1541.23,469.58z"/>
			<path class="st1" d="M1714.26,525.38h57.95c15.02,0,15.02,12.02,15.02,12.88h-100.87c0,0,2.15-10.73,2.15-21.46V409.49
				c0-10.73-2.15-23.61-2.15-23.61c27.9,0,27.9,12.88,27.9,23.61V525.38z"/>
		</g>
	</g>
	<g>
		<path class="st1" d="M627.07,625.19h23.47v5.63h-23.47v20.65c0,4.69,0,10.32-12.2,10.32c0,0,0.94-5.63,0.94-10.32v-46.92
			c0-4.7-0.94-9.39-0.94-9.39h44.1c0,0.38,0,5.63-6.57,5.63h-25.34V625.19z"/>
		<path class="st1" d="M719.26,636.46h-23.08l-7.6,16.7c-1.97,4.22-3.85,8.63-10.98,8.63c0,0,2.72-4.32,4.69-8.63l28.53-62.69
			l28.52,62.69c1.97,4.32,4.69,8.63,4.69,8.63c-13.04,0-15.11-4.41-17.08-8.63L719.26,636.46z M698.7,630.82h18.02l-9.01-19.71
			L698.7,630.82z"/>
		<path class="st1" d="M794.29,626.79c7.69,0,13.04-7.04,13.04-14.27c0-7.6-5.72-12.57-12.58-12.57c-3.19,0-6.29,0.19-11.26,0.19
			v51.33c0,4.69,0,10.32-12.2,10.32c0,0,0.94-5.63,0.94-10.32v-46.92c0-4.7-0.94-9.39-0.94-9.39c8.16,0,16.42-0.37,25.34-0.37
			c12.01,0,21.95,6.57,21.95,17.55c0,8.63-7.5,14.92-18.39,16.8l18.3,25.05c3.29,4.41,6.66,7.6,6.66,7.6
			c-12.29,0-15.3-3.85-18.11-7.6l-19.99-27.4H794.29z"/>
		<path class="st1" d="M867.43,660.85h-11.26v-56.3c0-4.7,0-10.32,12.2-10.32c0,0-0.93,5.63-0.93,10.32V660.85z"/>
		<path class="st1" d="M928.26,594.69c19.43,0,32.47,14.64,32.47,33.31c0,18.67-13.04,33.31-32.47,33.31
			c-8.82,0-16.05-0.47-23.27-0.47c0,0,0.93-5.07,0.93-9.38v-46.92c0-4.7-0.93-9.39-0.93-9.39
			C912.78,595.07,920.48,594.69,928.26,594.69z M917.19,600.04v55.93c4.03,0.09,7.6,0.28,11.17,0.28c14.45,0,20.65-12.2,20.65-28.25
			c0-15.86-7.32-28.25-20.65-28.25C924.33,599.76,920.76,600.04,917.19,600.04z"/>
		<path class="st1" d="M1024.97,636.46h-23.08l-7.6,16.7c-1.97,4.22-3.85,8.63-10.98,8.63c0,0,2.72-4.32,4.69-8.63l28.53-62.69
			l28.52,62.69c1.97,4.32,4.69,8.63,4.69,8.63c-13.04,0-15.11-4.41-17.08-8.63L1024.97,636.46z M1004.42,630.82h18.02l-9.01-19.71
			L1004.42,630.82z"/>
		<path class="st1" d="M1126.55,643.12c0,10.04-11.07,18.11-24.21,18.11c-8.45,0-16.89-0.37-25.34-0.37c0,0,0.93-4.6,0.93-9.29
			v-47.01c0-4.7-0.93-9.39-0.93-9.39c7.69-0.09,15.39-0.37,23.08-0.37c12.39,0,22.8,8.07,22.8,18.02c0,5.63-4.6,10.88-10.41,14.36
			C1120.08,630.26,1126.55,636.27,1126.55,643.12z M1089.2,599.95v25.9c3,0,6.01,0.1,9.01,0.1c7.23,0,13.14-5.35,13.14-13.61
			c0-7.32-5.91-12.67-13.14-12.67C1095.49,599.67,1092.68,599.95,1089.2,599.95z M1101.03,656.35c7.69,0,13.98-5.54,13.98-12.76
			c0-8.36-6.57-13.61-14.55-13.61c-3.29,0-9.29,0.09-11.26,0.19v25.9C1092.96,656.07,1096.62,656.35,1101.03,656.35z"/>
		<path class="st1" d="M1191.26,636.46h-23.08l-7.6,16.7c-1.97,4.22-3.85,8.63-10.98,8.63c0,0,2.72-4.32,4.69-8.63l28.53-62.69
			l28.52,62.69c1.97,4.32,4.69,8.63,4.69,8.63c-13.04,0-15.11-4.41-17.08-8.63L1191.26,636.46z M1170.7,630.82h18.02l-9.01-19.71
			L1170.7,630.82z"/>
		<path class="st1" d="M1266.56,594.69c19.43,0,32.47,14.64,32.47,33.31c0,18.67-13.04,33.31-32.47,33.31
			c-8.82,0-16.05-0.47-23.27-0.47c0,0,0.93-5.07,0.93-9.38v-46.92c0-4.7-0.93-9.39-0.93-9.39
			C1251.08,595.07,1258.77,594.69,1266.56,594.69z M1255.49,600.04v55.93c4.03,0.09,7.6,0.28,11.17,0.28
			c14.45,0,20.65-12.2,20.65-28.25c0-15.86-7.32-28.25-20.65-28.25C1262.63,599.76,1259.06,600.04,1255.49,600.04z"/>
	</g>
	<rect x="126.82" y="625.65" class="st1" width="438.76" height="4.44"/>
	<rect x="1350.92" y="625.65" class="st1" width="438.76" height="4.44"/>
	<g>
		<path class="st2" d="M327.07,811.79v25.7h40.12v10.64h-40.12v30.32h43.51v10.64H313.7v-87.93h56.2v10.64H327.07z"/>
		<path class="st2" d="M395.72,831.76c8.2-4.01,16.87-6.7,24.25-6.7c6.67,0,12.35,2.15,15.74,7.34c9.64-4.76,17.87-7.34,25.51-7.34
			c10.93,0,19.41,5.75,19.41,20.97v43.06h-13.05v-40.9c0-9.92-4.28-13.15-10.34-13.15c-5.42,0-12.18,2.57-18.56,5.47
			c0.46,1.59,0.73,3.49,0.73,5.77v42.81h-13.06v-40.9c0-9.92-4.27-13.15-10.33-13.15c-5.41,0-12.15,2.55-18.49,5.44v48.61h-13.06
			v-62.87h10.13L395.72,831.76z"/>
		<path class="st2" d="M510,828.8c7.92-2.49,14.65-3.77,20.28-3.77c15.98,0,23.87,10.29,23.87,32.79c0,20.39-5.64,32.53-26.24,32.53
			c-8.15,0-19.46-2.33-30.97-6.21v-89.26H510V828.8z M510,877.49c7.47,2.07,13.05,3.04,17.63,3.04c9.86,0,13.46-6.54,13.46-22.71
			c0-16.18-3.6-22.72-13.46-22.72c-4.58,0-10.17,0.97-17.63,3.05V877.49z"/>
		<path class="st2" d="M579.31,834.13c5.78-7.35,12.83-9.1,18.73-9.1c3.62,0,6.81,0.65,9.03,1.08l-1.78,9.69
			c-1.54-0.44-4.15-0.96-7.16-0.96c-5.55,0-11.38,1.36-16.5,8.21v45.97h-13.06v-62.81h9.11L579.31,834.13z"/>
		<path class="st2" d="M618.25,828.43c6.35-1.33,15.84-3.26,24.91-3.26c13.82,0,26.75,4.44,26.75,21.96v41.96h-9.87l-0.64-5.21
			c-9.03,3.91-17.97,6.34-25.47,6.34c-11.99,0-20.59-5.9-20.59-20.43c0-14.28,9.8-19.43,29.42-19.43c4.38,0,9.1,0.27,14.08,0.71
			v-3.89c0-9.62-7.39-12.25-16.54-12.25c-6.97,0-14.71,1.51-20.62,2.53L618.25,828.43z M656.84,858.42
			c-5.35-0.53-9.79-0.79-13.51-0.79c-14.81,0-17.48,3.93-17.48,11.4c0,8.29,4.47,11.45,11.23,11.45c5.52,0,12.51-2.09,19.76-5.43
			V858.42z"/>
		<path class="st2" d="M736.95,887.71c-9.12,1.64-17.18,2.64-24.08,2.64c-20.19-0.12-28.91-9.22-28.91-32.66
			c0-23.63,8.85-32.65,29.24-32.65c6.82,0,14.78,1,23.75,2.66l-1.68,9.46c-8.19-1.44-14.82-2.5-20.1-2.5
			c-14.06,0-18.15,6.55-18.15,23.02s4.09,23.01,18.15,23.01c5.28,0,11.91-1.04,20.1-2.49L736.95,887.71z"/>
		<path class="st2" d="M805.96,885.6c-10.65,3-20.13,4.62-28.18,4.62c-19.72-0.13-29.85-10.12-29.85-32.54
			c0-18.85,3.99-32.54,30.91-32.54c27.02,0,29.45,14.05,29.44,32.55v3.99h-47.14c0.11,12.48,5.39,18.53,18.19,18.53
			c6.68,0,15.13-1.48,24.85-4.23L805.96,885.6z M795.2,854.29c0-14.17-1.8-20.28-16.35-20.28c-14.93,0-17.79,6.23-17.8,20.28H795.2z
			"/>
		<path class="st2" d="M926.24,882.24c-9.85,4.09-22.06,7.98-33.31,7.98c-18.67,0-34.64-10.31-34.64-45.04
			c0-34.05,13.84-45.13,35.82-45.13c9.1,0,19.54,1.91,30.8,4.87l-2.54,10.37c-10.92-2.57-20.02-4.62-27.31-4.62
			c-15.29,0-23.4,7.97-23.4,34.51c0,27.89,10.2,34.39,21.51,34.39c6.97,0,14.17-2.23,19.7-4.08v-26.24h-19.98v-10.75h33.35V882.24z"
			/>
		<path class="st2" d="M1003.05,857.69c0,18.84-3.99,32.54-30.91,32.54s-30.91-13.7-30.91-32.54c0-18.85,3.99-32.54,30.91-32.54
			S1003.05,838.84,1003.05,857.69z M954.29,857.69c0,16.93,2.21,23.67,17.85,23.67c15.64,0,17.86-6.74,17.86-23.67
			c0-16.94-2.22-23.68-17.86-23.68C956.5,834.01,954.29,840.75,954.29,857.69z"/>
		<path class="st2" d="M1076.82,857.69c0,18.84-3.99,32.54-30.91,32.54c-26.92,0-30.91-13.7-30.91-32.54
			c0-18.85,3.99-32.54,30.91-32.54C1072.83,825.15,1076.82,838.84,1076.82,857.69z M1028.07,857.69c0,16.93,2.21,23.67,17.85,23.67
			c15.64,0,17.86-6.74,17.86-23.67c0-16.94-2.22-23.68-17.86-23.68C1030.28,834.01,1028.07,840.75,1028.07,857.69z"/>
		<path class="st2" d="M1136.12,889.09l-0.62-4.92c-9.24,3.86-17.38,6.18-24.15,6.18c-13.86,0-22.57-9.5-22.57-32.53
			c0-22.51,7.9-32.79,23.89-32.79c5.62,0,12.35,1.29,20.25,3.77v-33.93h13.06v94.21H1136.12z M1132.92,838.15
			c-7.47-2.08-13.04-3.05-17.62-3.05c-9.86,0-13.46,6.54-13.46,22.72c0,17.17,4.37,22.71,11.96,22.71c4.95,0,11.16-1.71,19.13-4.57
			V838.15z"/>
		<path class="st2" d="M1254.2,889.09v-40.1h-38.95v40.1h-13.37v-87.93h13.37v37.19h38.95v-37.19h13.37v87.93H1254.2z"/>
		<path class="st2" d="M1341.23,885.6c-10.65,3-20.13,4.62-28.18,4.62c-19.72-0.13-29.85-10.12-29.85-32.54
			c0-18.85,3.99-32.54,30.91-32.54c27.02,0,29.45,14.05,29.44,32.55v3.99h-47.14c0.11,12.48,5.39,18.53,18.19,18.53
			c6.68,0,15.13-1.48,24.85-4.23L1341.23,885.6z M1330.47,854.29c0-14.17-1.8-20.28-16.35-20.28c-14.93,0-17.79,6.23-17.8,20.28
			H1330.47z"/>
		<path class="st2" d="M1358.89,828.43c6.35-1.33,15.83-3.26,24.91-3.26c13.82,0,26.74,4.44,26.74,21.96v41.96h-9.86l-0.65-5.21
			c-9.03,3.91-17.97,6.34-25.46,6.34c-12,0-20.6-5.9-20.6-20.43c0-14.28,9.8-19.43,29.43-19.43c4.37,0,9.1,0.27,14.08,0.71v-3.89
			c0-9.62-7.39-12.25-16.54-12.25c-6.97,0-14.72,1.51-20.63,2.53L1358.89,828.43z M1397.47,858.42c-5.34-0.53-9.78-0.79-13.5-0.79
			c-14.82,0-17.48,3.93-17.48,11.4c0,8.29,4.46,11.45,11.22,11.45c5.53,0,12.52-2.09,19.76-5.43V858.42z"/>
		<path class="st2" d="M1440.79,870.21c0,7.64,2.22,9.91,6.45,10.15c2.32,0.2,5.18-0.26,8.28-0.98l1.64,9.09
			c-6.33,1.38-9.72,1.88-13.42,1.88c-11.06-0.26-16.02-5.7-16.02-19.48v-75.98h13.06V870.21z"/>
		<path class="st2" d="M1514.48,826.28v9.88h-25.12v33.54c0,8.25,3.48,10.72,9.43,10.72c4.24,0,9.57-1.26,15.24-2.59l1.66,9.06
			c-7.83,2.01-15.06,3.46-21.1,3.46c-11.2,0-18.28-5.36-18.28-20.65v-33.54h-14.1v-9.88h14.1v-18.79h13.05v18.79H1514.48z"/>
		<path class="st2" d="M1542.83,831.49c9.66-4.46,17.32-6.3,24.26-6.3c12.39,0,22.17,6.11,22.17,20.61v43.28h-13.05v-39.69
			c0-8.85-4.11-14.33-12.89-14.33c-5.08,0-11.16,1.58-20.5,5.93v48.09h-13.05v-94.21h13.05V831.49z"/>
	</g>
</g>
</svg>
